<?xml version="1.0" encoding="UTF-8" standalone="no"?>
<!-- Created with Inkscape (http://www.inkscape.org/) -->

<svg
   xmlns:dc="http://purl.org/dc/elements/1.1/"
   xmlns:cc="http://creativecommons.org/ns#"
   xmlns:rdf="http://www.w3.org/1999/02/22-rdf-syntax-ns#"
   xmlns:svg="http://www.w3.org/2000/svg"
   xmlns="http://www.w3.org/2000/svg"
   xmlns:sodipodi="http://sodipodi.sourceforge.net/DTD/sodipodi-0.dtd"
   xmlns:inkscape="http://www.inkscape.org/namespaces/inkscape"
   width="744.09448819"
   height="1052.3622047"
   id="svg2"
   version="1.1"
   inkscape:version="0.48.0 r9654"
   sodipodi:docname="Bob.eps">
  <defs
     id="defs4" />
  <sodipodi:namedview
     id="base"
     pagecolor="#ffffff"
     bordercolor="#666666"
     borderopacity="1.0"
     inkscape:pageopacity="0.0"
     inkscape:pageshadow="2"
     inkscape:zoom="1.4"
     inkscape:cx="505.13505"
     inkscape:cy="794.78773"
     inkscape:document-units="px"
     inkscape:current-layer="layer1"
     showgrid="false"
     inkscape:window-width="1014"
     inkscape:window-height="967"
     inkscape:window-x="223"
     inkscape:window-y="23"
     inkscape:window-maximized="0" />
  <metadata
     id="metadata7">
    <rdf:RDF>
      <cc:Work
         rdf:about="">
        <dc:format>image/svg+xml</dc:format>
        <dc:type
           rdf:resource="http://purl.org/dc/dcmitype/StillImage" />
        <dc:title></dc:title>
      </cc:Work>
    </rdf:RDF>
  </metadata>
  <g
     inkscape:label="Layer 1"
     inkscape:groupmode="layer"
     id="layer1">
    <path
       style="fill:none;stroke:#000000;stroke-width:0.39651003px;stroke-linecap:butt;stroke-linejoin:miter;stroke-opacity:1"
       d="m 547.77749,42.787592 c -1.1293,-0.685088 -1.79567,-0.675318 -2.85072,-0.675318 -0.15838,0 -0.36314,-0.159175 -0.47513,0 -0.11198,0.159173 0.11199,0.516144 0,0.675318 -0.082,0.11659 -2.11106,-0.094 -2.3756,0 -0.34356,0.122081 -0.61428,0.516144 -0.95024,0.675318 -0.15025,0.07118 -0.31675,0 -0.47512,0 -0.47512,0 -0.96443,-0.163789 -1.42536,0 -0.21729,0.07721 -0.26264,0.574647 -0.47512,0.675318 -0.3005,0.14237 -0.64975,-0.14237 -0.95024,0 -0.21249,0.10067 -0.28877,0.49873 -0.47512,0.675318 -0.29466,0.27921 -0.61428,0.516144 -0.95025,0.675318 -1.41435,0.670103 0.97486,-1.599066 -1.42536,0.675318 -0.37271,0.353176 -0.52528,1.149296 -0.95024,1.350636 -0.30049,0.14237 -0.64295,-0.109192 -0.95024,0 -0.34356,0.122081 -0.6335,0.450212 -0.95024,0.675319 -0.6335,0.450212 -1.22856,1.032288 -1.90049,1.350636 -0.87764,0.415819 -0.22525,-1.03047 -1.42536,0.675318 -1.15397,1.640214 0.14129,0.991652 -0.95024,2.025954 -0.29466,0.27921 -0.65558,0.396109 -0.95024,0.675318 -0.37271,0.353176 -0.63349,0.900425 -0.95024,1.350637 -0.31675,0.450212 -0.63349,0.900424 -0.95024,1.350636 -0.15837,0.225106 -0.37496,0.390579 -0.47512,0.675318 -0.0708,0.201341 0.0501,0.461763 0,0.675318 -1.14717,4.89161 0.13698,-1.064712 -0.95024,2.025954 -0.0708,0.201341 0.0708,0.473977 0,0.675318 -0.10017,0.28474 -0.4043,0.373307 -0.47512,0.675319 -0.10017,0.427108 0.0768,0.913866 0,1.350635 -0.0859,0.488324 -0.36314,0.873115 -0.47512,1.350637 -0.0501,0.213554 0.0501,0.461765 0,0.675318 -0.22398,0.955046 -0.77846,1.724624 -0.95024,2.701274 -0.0768,0.436767 0,0.900423 0,1.350635 0,1.125529 0,2.251058 0,3.376592 0,3.601693 0,7.20339 0,10.805088 0,2.476164 0,4.952333 0,7.428501 0,1.125529 -0.13019,2.266375 0,3.376587 0.0823,0.702164 0.39278,1.323794 0.47512,2.025957 0.0781,0.666128 -0.0781,1.359825 0,2.025953 0.0823,0.702163 0.31674,1.350635 0.47512,2.025957 0.4715,2.010523 0.87171,4.110543 1.42536,6.077863 0.13152,0.46735 0.3436,0.88328 0.47512,1.35063 0.372,1.32187 0.57824,2.73004 0.95024,4.05191 0.13152,0.46736 0.3436,0.88329 0.47512,1.35064 0.186,0.66093 0.21745,1.41555 0.47512,2.02595 0.23047,0.54597 0.67041,0.85346 0.95024,1.35064 0.35672,0.63378 0.59353,1.39218 0.95024,2.02595 0.55966,0.99435 1.26699,1.80085 1.90048,2.70128 0.47513,0.67531 0.99521,1.29226 1.42537,2.02595 0.36556,0.62351 0.50435,1.51893 0.95024,2.02596 0.39107,0.44468 0.99591,0.30907 1.42536,0.67531 2.55432,2.17837 -0.95257,0.6739 2.3756,2.70128 0.6002,0.36561 1.28907,0.34942 1.90049,0.67531 0.66317,0.35348 1.26698,0.90043 1.90048,1.35064 2.48585,1.76665 3.51321,2.59591 6.17657,4.05191 6.269,3.42712 -0.78805,-0.83417 6.17656,2.70127 2.27175,1.1532 4.37995,2.89871 6.65169,4.05191 1.08581,0.55119 2.22385,0.86869 3.32585,1.35064 1.32892,0.58119 4.89841,2.44173 6.17656,2.70127 8.64671,0 -1.62832,-0.4983 6.17657,1.35063 0.93732,0.22205 1.91894,-0.26488 2.85073,0 0.69451,0.19743 1.21336,1.10648 1.90048,1.35064 0.61458,0.21839 1.26699,0 1.90048,0 1.10862,0 2.21723,0 3.32585,0 1.42536,0 2.85072,0 4.27608,0 0.31675,0 0.63965,0.0883 0.95024,0 0.98219,-0.27921 1.86854,-1.07142 2.85072,-1.35064 0.3106,-0.0883 0.64296,0.1092 0.95025,0 0.68712,-0.24416 1.24287,-0.97675 1.90048,-1.35063 1.11294,-0.63276 2.31002,-1.06339 3.32584,-2.02596 0.37272,-0.35317 0.57753,-0.99746 0.95024,-1.35063 0.29466,-0.27921 0.69983,-0.3194 0.95025,-0.67532 0.25041,-0.35592 0.18046,-1.07143 0.47512,-1.35064 0.26355,-0.24973 0.68669,0.24974 0.95024,0 0.29465,-0.27921 0.31674,-0.90042 0.47512,-1.35063 0.31674,-0.90043 0.55736,-1.86364 0.95024,-2.70128 0.12424,-0.26488 0.35088,-0.41043 0.47512,-0.67531 0.20185,-0.43037 1.34832,-3.61387 1.42536,-4.05191 0.0768,-0.43677 -0.0768,-0.91387 0,-1.35064 0.0859,-0.48832 0.3436,-0.88329 0.47512,-1.35063 0.372,-1.32187 0.57824,-2.73005 0.95025,-4.05191 0.13152,-0.46735 0.34359,-0.88329 0.47512,-1.35064 0.37199,-1.32187 0.57824,-2.73004 0.95024,-4.05191 0.13152,-0.46735 0.40567,-0.85706 0.47512,-1.35064 0.0932,-0.6622 -0.0781,-1.35982 0,-2.02595 0.0823,-0.70216 0.3769,-1.32793 0.47512,-2.02596 0.32612,-2.31771 -0.39135,-0.59533 0,-3.37658 0.0694,-0.49358 0.40567,-0.85706 0.47512,-1.35064 0.0932,-0.66221 0,-1.35064 0,-2.02595 0,-0.67532 0,-1.35064 0,-2.02596 0,-2.02595 0,-4.051906 0,-6.077863 0,-1.575741 0,-3.151481 0,-4.727227 0,-0.450211 0.0768,-0.913867 0,-1.350634 -0.0859,-0.488323 -0.31675,-0.900424 -0.47512,-1.350635 -0.31675,-0.900428 -0.72627,-1.746228 -0.95024,-2.701275 -0.0501,-0.213552 0.0501,-0.461765 0,-0.675317 -0.11199,-0.477521 -0.31675,-0.900423 -0.47512,-1.350635 -0.46793,-1.33019 -1.03693,-2.671625 -1.42537,-4.051909 -0.186,-0.660938 -0.17462,-1.456478 -0.47512,-2.025957 -0.57699,-0.410054 -1.06259,-0.577204 -1.42536,-1.350635 -0.19644,-0.418814 -0.27868,-0.931822 -0.47512,-1.350635 -0.29641,-0.631974 -1.59619,-2.268771 -1.90048,-2.701274 -0.31675,-0.450212 -0.6335,-0.900424 -0.95024,-1.350635 -0.31675,-0.450212 -0.59189,-0.968619 -0.95024,-1.350635 -0.28331,-0.302013 -0.65559,-0.396109 -0.95025,-0.675322 -2.17659,-2.06248 2.01954,1.097591 -1.42536,-1.350635 -0.31674,-0.225106 -0.69983,-0.319395 -0.95024,-0.675318 -0.25041,-0.355922 -0.19181,-1.048626 -0.47512,-1.350634 -0.40066,-0.42711 -0.99591,-0.309076 -1.42536,-0.675318 -0.38411,-0.327578 -0.63349,-0.900428 -0.95024,-1.35064 -0.47512,-0.675317 -0.95024,-1.350634 -1.42537,-2.025952 -0.31674,-0.450212 -0.56612,-1.023059 -0.95024,-1.350637 -0.42944,-0.366242 -0.96036,-0.410944 -1.42536,-0.675317 -0.3288,-0.186941 -0.62143,-0.488378 -0.95024,-0.675318 -0.465,-0.264374 -0.96036,-0.410945 -1.42536,-0.675319 -0.32881,-0.18694 -0.60668,-0.553237 -0.95024,-0.675318 -0.30729,-0.109192 -0.64975,0.14237 -0.95024,0 -0.21248,-0.10067 -0.31675,-0.450212 -0.47512,-0.675318 -0.31675,-0.225106 -0.60668,-0.553237 -0.95024,-0.675318 -0.3073,-0.109192 -0.64296,0.109192 -0.95024,0 -0.85994,0.407033 -0.88365,-1.093976 -1.42537,-1.350636 -0.30049,-0.14237 -0.64295,0.109192 -0.95024,0 -0.34356,-0.122081 -0.61428,-0.516144 -0.95024,-0.675318 -0.15025,-0.07118 -0.32487,0.07118 -0.47512,0 -0.33596,-0.159174 -0.6335,-0.450212 -0.95024,-0.675318 -0.6335,-0.450213 -1.26699,-0.900425 -1.90048,-1.350637 -0.31675,-0.225106 -0.61428,-0.516144 -0.95025,-0.675318 -0.45073,-0.213554 -0.97462,0.213555 -1.42536,0 -0.21248,-0.10067 -0.28876,-0.49873 -0.47512,-0.675318 -0.29466,-0.279209 -0.61428,-0.516144 -0.95024,-0.675318 -0.30049,-0.142369 -0.66693,0.201341 -0.95024,0 -0.20033,-0.142369 -0.27479,-0.532948 -0.47512,-0.675318 -0.14166,-0.10067 -0.33347,0.10067 -0.47512,0 -0.20033,-0.14237 -0.27479,-0.532949 -0.47512,-0.675318 -0.28331,-0.201341 -0.72627,0.318348 -0.95024,0 -0.11199,-0.159174 0.14165,-0.574648 0,-0.675318 -0.28331,-0.201341 -0.64975,0.142369 -0.95024,0 -0.21248,-0.100671 -0.2748,-0.532949 -0.47513,-0.675318 -0.2833,-0.201341 -0.66693,0.201341 -0.95024,0 -2.17444,-1.545333 2.01614,0.2799 -1.42536,-1.350637 -0.47512,-0.225106 -0.95024,0.450212 -1.42536,0 -0.29466,-0.279209 -0.18046,-1.071426 -0.47512,-1.350636 -0.26355,-0.249732 -0.64295,0.109193 -0.95024,0 -0.68712,-0.244162 -1.22856,-1.032288 -1.90048,-1.350636 -0.15025,-0.07118 -0.33347,0.100671 -0.47512,0 -0.20033,-0.14237 -0.26265,-0.574648 -0.47512,-0.675318 -2.16289,0 -0.0272,0.318348 -1.42537,-0.675318 -0.2833,-0.201341 -0.72627,0.318348 -0.95024,0 -0.11199,-0.159174 0,-0.450212 0,-0.675318 -0.31674,0 -0.66693,0.201341 -0.95024,0 -0.14165,-0.100671 0.11199,-0.516145 0,-0.675318 -0.23756,-0.33766 -1.1878,0.337659 -1.42536,0 -0.11199,-0.159175 0.11199,-0.516144 0,-0.675318 -0.22397,-0.318349 -0.72627,0.318348 -0.95024,0 -0.11199,-0.159174 0.11199,-0.516144 0,-0.675319 -0.11433,-0.162502 -1.78616,0.162503 -1.90049,0 -0.11198,-0.159173 0.11199,-0.516144 0,-0.675318 -0.11198,-0.159174 -0.31674,0 -0.47512,0 -0.15837,0 -0.31674,0 -0.47512,0 -1.26698,0 0.15838,0.225106 -0.47512,-0.675318 -0.0191,-0.02718 -1.726,0 -1.90048,0 -0.11572,0 -1.39949,-0.09195 -1.42536,0 -0.29992,1.065725 -0.31675,2.251061 -0.47512,3.376591 z"
       id="path2985"
       inkscape:connector-curvature="0" />
    <text
       xml:space="preserve"
       style="font-size:4.75812006px;font-style:normal;font-variant:normal;font-weight:normal;font-stretch:normal;line-height:125%;letter-spacing:0px;word-spacing:0px;fill:#000000;fill-opacity:1;stroke:none;font-family:Times New Roman;-inkscape-font-specification:Times New Roman"
       x="636.36456"
       y="59.745316"
       id="text2987"
       sodipodi:linespacing="125%"
       transform="scale(0.83877937,1.1922086)"><tspan
         sodipodi:role="line"
         id="tspan2989"
         x="636.36456"
         y="59.745316">Age: 20</tspan></text>
    <text
       xml:space="preserve"
       style="font-size:4.75812006px;font-style:normal;font-variant:normal;font-weight:normal;font-stretch:normal;line-height:125%;letter-spacing:0px;word-spacing:0px;fill:#000000;fill-opacity:1;stroke:none;font-family:Times New Roman;-inkscape-font-specification:Times New Roman"
       x="633.80597"
       y="68.743034"
       id="text2991"
       sodipodi:linespacing="125%"
       transform="scale(0.83877936,1.1922086)"><tspan
         sodipodi:role="line"
         id="tspan2993"
         x="633.80597"
         y="68.743034">Income: 30,000</tspan></text>
    <text
       xml:space="preserve"
       style="font-size:4.75812006px;font-style:normal;font-variant:normal;font-weight:normal;font-stretch:normal;line-height:125%;letter-spacing:0px;word-spacing:0px;fill:#000000;fill-opacity:1;stroke:none;font-family:Times New Roman;-inkscape-font-specification:Times New Roman"
       x="635.50531"
       y="75.540352"
       id="text2995"
       sodipodi:linespacing="125%"
       transform="scale(0.83877936,1.1922086)"><tspan
         sodipodi:role="line"
         id="tspan2997"
         x="635.50531"
         y="75.540352">Wife: Jill</tspan></text>
    <text
       xml:space="preserve"
       style="font-size:4.75812006px;font-style:normal;font-variant:normal;font-weight:normal;font-stretch:normal;line-height:125%;letter-spacing:0px;word-spacing:0px;fill:#000000;fill-opacity:1;stroke:none;font-family:Times New Roman;-inkscape-font-specification:Times New Roman"
       x="636.07178"
       y="83.470558"
       id="text2999"
       sodipodi:linespacing="125%"
       transform="scale(0.83877936,1.1922086)"><tspan
         sodipodi:role="line"
         id="tspan3001"
         x="636.07178"
         y="83.470558">Girlfriend: Jane</tspan></text>
    <text
       xml:space="preserve"
       style="font-size:4.75812006px;font-style:normal;font-variant:normal;font-weight:normal;font-stretch:normal;line-height:125%;letter-spacing:0px;word-spacing:0px;fill:#000000;fill-opacity:1;stroke:none;font-family:Times New Roman;-inkscape-font-specification:Times New Roman"
       x="637.77112"
       y="91.400757"
       id="text3003"
       sodipodi:linespacing="125%"
       transform="scale(0.83877936,1.1922086)"><tspan
         sodipodi:role="line"
         id="tspan3005"
         x="637.77112"
         y="91.400757">Job: clerk</tspan></text>
    <text
       xml:space="preserve"
       style="font-size:4.75812006px;font-style:normal;font-variant:normal;font-weight:normal;font-stretch:normal;line-height:125%;letter-spacing:0px;word-spacing:0px;fill:#000000;fill-opacity:1;stroke:none;font-family:Times New Roman;-inkscape-font-specification:Times New Roman"
       x="676.85565"
       y="68.176598"
       id="text3007"
       sodipodi:linespacing="125%"
       transform="scale(0.83877936,1.1922086)"><tspan
         sodipodi:role="line"
         id="tspan3009"
         x="676.85565"
         y="68.176598">Friends= {Bill,</tspan><tspan
         sodipodi:role="line"
         x="676.85565"
         y="74.124245"
         id="tspan3011">Bob, Rick, Mary,</tspan><tspan
         sodipodi:role="line"
         x="676.85565"
         y="80.071899"
         id="tspan3013">Sami, Jaime}</tspan></text>
    <text
       xml:space="preserve"
       style="font-size:4.75812006px;font-style:normal;font-variant:normal;font-weight:normal;font-stretch:normal;line-height:125%;letter-spacing:0px;word-spacing:0px;fill:#000000;fill-opacity:1;stroke:none;font-family:Times New Roman;-inkscape-font-specification:Times New Roman"
       x="676.28918"
       y="90.267868"
       id="text3015"
       sodipodi:linespacing="125%"
       transform="scale(0.83877936,1.1922086)"><tspan
         sodipodi:role="line"
         id="tspan3017"
         x="676.28918"
         y="90.267868">Education: 12</tspan><tspan
         sodipodi:role="line"
         x="676.28918"
         y="96.215515"
         id="tspan3019" /></text>
    <path
       style="fill:none;stroke:#000000;stroke-width:0.39651003px;stroke-linecap:butt;stroke-linejoin:miter;stroke-opacity:1"
       d="m 512.14344,51.566727 c 0.6335,0 1.90049,-0.900424 1.90049,0 0,0.900424 -2.1838,-0.805364 -1.90049,0 2.21564,6.298437 1.57975,0.447377 2.85073,1.350636 0.20033,0.14237 0.27479,0.532949 0.47512,0.675318 0.28331,0.201341 0.66693,-0.20134 0.95024,0 0.20033,0.14237 0.27479,0.532949 0.47512,0.675319 0.28331,0.20134 0.72627,-0.318348 0.95024,0 0.11199,0.159173 -0.11199,0.516144 0,0.675318 0.11199,0.159174 0.36313,-0.159174 0.47512,0 0.11199,0.159174 -0.11199,0.516144 0,0.675318 0.11199,0.159174 0.36313,-0.159174 0.47512,0 0.11199,0.159174 -0.11199,0.516144 0,0.675318 0.11199,0.159174 0.36313,-0.159174 0.47512,0 0.11199,0.159174 0,0.450212 0,0.675318 0.15837,0 0.36314,-0.159174 0.47512,0 0.11199,0.159174 -0.11198,0.516144 0,0.675318 0.22398,0.318348 0.72627,-0.318348 0.95025,0 0.11198,0.159174 -0.11199,0.516144 0,0.675318 0.11198,0.159174 0.36313,-0.159174 0.47512,0 0.11198,0.159174 -0.11199,0.516144 0,0.675318 0.11198,0.159174 0.36313,-0.159174 0.47512,0 0.23755,0.337659 -0.23757,1.688295 0,2.025955 0.11198,0.159173 0.31674,0 0.47512,0"
       id="path3021"
       inkscape:connector-curvature="0" />
    <path
       style="fill:none;stroke:#000000;stroke-width:0.39651003px;stroke-linecap:butt;stroke-linejoin:miter;stroke-opacity:1"
       d="m 523.54634,38.060365 c 1.52038,2.881357 1.42536,1.575742 1.42536,3.376591 0,1.583741 -0.11199,-0.318349 0.47512,1.350636 0.0708,0.201341 -0.11199,0.516144 0,0.675318 0.11199,0.159174 0.36313,-0.159174 0.47512,0 0.11433,0.162502 -0.11433,2.53877 0,2.701272 0.11199,0.159174 0.36314,-0.159174 0.47512,0 0.22398,0.318348 -0.14165,0.947955 0,1.350636 0.10016,0.28474 0.37496,0.390579 0.47512,0.675319 0.0942,0.267758 -0.0971,1.887894 0,2.025954 0.11199,0.159174 0.36314,-0.159174 0.47512,0 0.22398,0.318348 -0.22397,1.032288 0,1.350636 0.11199,0.159174 0.36314,-0.159174 0.47512,0 0.22398,0.318348 -0.22397,1.032288 0,1.350636 0.11199,0.159174 0.47512,-0.225106 0.47512,0 0,0.225106 -0.31674,0 -0.47512,0"
       id="path3023"
       inkscape:connector-curvature="0" />
    <path
       style="fill:none;stroke:#000000;stroke-width:0.39651003px;stroke-linecap:butt;stroke-linejoin:miter;stroke-opacity:1"
       d="m 540.17556,32.65782 c 0,1.575742 0,3.151485 0,4.727227 0,0.225106 -0.11199,0.516144 0,0.675318 0.11198,0.159174 0.36313,-0.159174 0.47512,0 0.11199,0.159174 -0.0708,0.473977 0,0.675318 0.10016,0.284739 0.37496,0.390579 0.47512,0.675318 0.0708,0.201341 0,0.450212 0,0.675318 0,0.225106 0,0.450213 0,0.675318"
       id="path3025"
       inkscape:connector-curvature="0" />
    <path
       style="fill:none;stroke:#000000;stroke-width:0.39651003px;stroke-linecap:butt;stroke-linejoin:miter;stroke-opacity:1"
       d="m 557.2799,30.631866 c 0,2.701272 0,5.402545 0,8.103817 0,0.163783 0.0153,2.004236 0,2.025954 -0.11199,0.159175 -0.36313,-0.159173 -0.47512,0 -0.0191,0.02718 0,2.453271 0,2.701273 0,1.870085 -0.47512,-0.519449 -0.47512,1.350636"
       id="path3027"
       inkscape:connector-curvature="0" />
    <path
       style="fill:none;stroke:#000000;stroke-width:0.39651003px;stroke-linecap:butt;stroke-linejoin:miter;stroke-opacity:1"
       d="m 572.95888,38.735683 c -0.31675,0.900424 -0.6872,1.76657 -0.95024,2.701273 0,1.800848 0.15837,-0.225107 -0.47512,0.675318 -0.22398,0.318348 0.22397,1.032288 0,1.350636 -0.11199,0.159174 -0.36314,-0.159174 -0.47512,0 -0.0971,0.13806 0.0942,1.758196 0,2.025954 -0.10017,0.284739 -0.37496,0.390579 -0.47512,0.675318 -0.0708,0.201341 0,0.450212 0,0.675318 0,0.225106 0,0.450212 0,0.675318 0,1.800849 0.15837,-0.225106 -0.47512,0.675319 -0.22398,0.318348 0.22397,1.032288 0,1.350636 -0.11199,0.159174 -0.47512,0.225106 -0.47512,0 0,-0.225106 0.31674,0 0.47512,0"
       id="path3029"
       inkscape:connector-curvature="0" />
    <path
       style="fill:none;stroke:#000000;stroke-width:0.39651003px;stroke-linecap:butt;stroke-linejoin:miter;stroke-opacity:1"
       d="m 586.26226,44.138228 c -0.51353,2.919657 -0.47512,1.773136 -0.47512,3.37659 0,0.225107 0.0708,0.473978 0,0.675319 -0.10017,0.284738 -0.37496,0.390579 -0.47512,0.675318 -0.0708,0.201341 0.0708,0.473977 0,0.675318 -0.20033,0.569478 -0.74992,0.781158 -0.95024,1.350636 -0.0708,0.201341 0.0708,0.473977 0,0.675318 -0.28508,0.810382 -1.14029,1.215573 -1.42537,2.025954 -0.0708,0.201341 0.11199,0.516144 0,0.675319 -0.11198,0.159173 -0.36313,-0.159175 -0.47512,0 -0.11199,0.159173 0.11199,0.516144 0,0.675318 -0.11199,0.159174 -0.33346,-0.100671 -0.47512,0 -0.20033,0.142369 -0.31674,0.450212 -0.47512,0.675318 -0.15837,0.225106 -0.31674,0.450212 -0.47512,0.675318 -0.15837,0.225106 -0.31675,0.450212 -0.47512,0.675318 -0.15837,0.225106 -0.37496,0.390579 -0.47512,0.675318 -0.0708,0.201341 0.0708,0.473977 0,0.675318 -0.29355,0.834492 -0.45872,0.675318 -0.95024,0.675318"
       id="path3031"
       inkscape:connector-curvature="0" />
    <path
       style="fill:none;stroke:#000000;stroke-width:0.39651003px;stroke-linecap:butt;stroke-linejoin:miter;stroke-opacity:1"
       d="m 597.66515,50.891409 c -1.84086,-0.345111 1.04615,2.564959 0.47512,3.376591 -0.11198,0.159173 -0.36313,-0.159175 -0.47512,0 -0.23756,0.337658 0.23756,1.688295 0,2.025954 -0.11198,0.159174 -0.36313,-0.159174 -0.47512,0 -0.11199,0.159174 0.0708,0.473977 0,0.675318 -0.10016,0.284739 -0.37496,0.390579 -0.47512,0.675318 -0.0708,0.201341 0.11199,0.516144 0,0.675318 -0.11199,0.159174 -0.36313,-0.159174 -0.47512,0 -0.11199,0.159174 0.11199,0.516144 0,0.675318 -0.11199,0.159174 -0.33347,-0.10067 -0.47512,0 -0.25376,0.180338 -1.17523,1.670424 -1.42536,2.025955 -0.15837,0.225105 -0.37496,0.390579 -0.47512,0.675317 -0.0708,0.201342 0.11198,0.516145 0,0.675319 -0.11199,0.159174 -0.36314,-0.159174 -0.47512,0 -0.22398,0.318348 0.22397,1.03229 0,1.350636 -0.11199,0.159175 -0.31675,0 -0.47513,0 -0.15837,0 -0.31674,0 -0.47512,0"
       id="path3033"
       inkscape:connector-curvature="0" />
    <path
       style="fill:none;stroke:#000000;stroke-width:0.39651003px;stroke-linecap:butt;stroke-linejoin:miter;stroke-opacity:1"
       d="m 606.69244,63.047135 c 1.04281,6.801699 -1.72261,1.097818 -2.3756,2.025952 -0.11199,0.159176 0.11199,0.516147 0,0.675318 -0.11199,0.159175 -0.33347,-0.100666 -0.47512,0 -0.20033,0.14237 -0.27479,0.532952 -0.47512,0.675322 -0.14165,0.100671 -0.33347,-0.100671 -0.47512,0 -0.20033,0.14237 -0.27479,0.532948 -0.47512,0.675318 -0.14166,0.100671 -0.33347,-0.100672 -0.47512,0 -1.97734,1.405253 0.50792,-0.04661 -0.47512,1.350634 -0.11199,0.159176 -0.33347,-0.100671 -0.47512,0 -1.97734,1.405258 0.50792,-0.04661 -0.47512,1.350635 -0.11199,0.159175 -0.33347,-0.100671 -0.47513,0 -0.20032,0.14237 -0.27479,0.532952 -0.47512,0.675318 -0.14165,0.100671 -0.36313,-0.159171 -0.47512,0 -0.11198,0.159175 0.11199,0.516147 0,0.675322 -0.11198,0.15917 -0.31674,0 -0.47512,0 -0.63349,0 -1.26698,0 -1.90048,0"
       id="path3035"
       inkscape:connector-curvature="0" />
    <path
       style="fill:none;stroke:#000000;stroke-width:0.39651003px;stroke-linecap:butt;stroke-linejoin:miter;stroke-opacity:1"
       d="m 613.34413,75.878181 c -0.63349,0.225105 -1.2942,0.330617 -1.90048,0.675317 -0.20795,0.118233 -0.27479,0.532948 -0.47512,0.675317 -0.14165,0.100671 -0.36314,-0.159175 -0.47512,0 -0.11199,0.159176 0.11198,0.516143 0,0.675318 -0.11199,0.159175 -0.36314,-0.159175 -0.47512,0 -0.11199,0.159175 0.11198,0.516142 0,0.675317 -0.22398,0.318351 -0.66694,-0.201342 -0.95024,0 -0.20033,0.14237 -0.2748,0.532948 -0.47512,0.675318 -0.18839,0.133879 -1.32823,-0.138059 -1.42536,0 -0.11199,0.159175 0.11198,0.516147 0,0.675317 -0.22398,0.31835 -0.72627,-0.318346 -0.95025,0 -0.11198,0.159175 0.11199,0.516147 0,0.675322 -0.11198,0.159171 -0.33346,-0.100671 -0.47512,0 -1.13772,0.808555 0.29942,1.350635 -0.95024,1.350635"
       id="path3037"
       inkscape:connector-curvature="0" />
    <path
       style="fill:none;stroke:#000000;stroke-width:0.39651003px;stroke-linecap:butt;stroke-linejoin:miter;stroke-opacity:1"
       d="m 561.55599,142.05935 c 0.31653,0.0545 -0.17491,3.98141 0,4.72723 0.11198,0.47752 0.36313,0.87312 0.47512,1.35064 0.0501,0.21355 0,0.45021 0,0.67531 0,0.45022 0,0.90043 0,1.35064 0,1.12553 0,2.25106 0,3.37659 0,0.55288 -0.10262,2.93904 0,3.37659 0.11198,0.47752 0.36313,0.87312 0.47512,1.35064 0.10474,0.44665 0,3.3885 0,4.05191 0,2.25105 0,4.50212 0,6.75318 0,1.80085 0,3.60169 0,5.40254 0,0.30414 0.0723,1.82044 0,2.02596 -0.10017,0.28474 -0.37496,0.39057 -0.47512,0.67531 -0.12888,0.36635 0.13,2.5165 0,2.70128 -0.11199,0.15917 -0.36314,-0.15918 -0.47512,0 -0.11433,0.1625 0.11433,2.53877 0,2.70127 -0.6335,0.90042 -0.47512,-1.12553 -0.47512,0.67532"
       id="path3041"
       inkscape:connector-curvature="0" />
    <path
       style="fill:none;stroke:#000000;stroke-width:0.39651003px;stroke-linecap:butt;stroke-linejoin:miter;stroke-opacity:1"
       d="m 576.55175,145.79236 -1.67981,33.42654"
       id="path3043"
       inkscape:connector-curvature="0" />
    <text
       xml:space="preserve"
       style="font-size:4.75812006px;font-style:normal;font-variant:normal;font-weight:normal;font-stretch:normal;line-height:125%;letter-spacing:0px;word-spacing:0px;fill:#000000;fill-opacity:1;stroke:none;font-family:Times New Roman;-inkscape-font-specification:Times New Roman"
       x="644.51263"
       y="181.96744"
       id="text3047"
       sodipodi:linespacing="125%"
       transform="scale(0.83877936,1.1922086)"><tspan
         sodipodi:role="line"
         id="tspan3049"
         x="644.51263"
         y="181.96744">Digest</tspan></text>
    <text
       xml:space="preserve"
       style="font-size:4.75812006px;font-style:normal;font-variant:normal;font-weight:normal;font-stretch:normal;line-height:125%;letter-spacing:0px;word-spacing:0px;fill:#000000;fill-opacity:1;stroke:none;font-family:Times New Roman;-inkscape-font-specification:Times New Roman"
       x="654.12549"
       y="217.21455"
       id="text3051"
       sodipodi:linespacing="125%"
       transform="scale(0.83877936,1.1922086)"><tspan
         sodipodi:role="line"
         id="tspan3053"
         x="654.12549"
         y="217.21455">Excrete</tspan></text>
    <text
       xml:space="preserve"
       style="font-size:4.75812006px;font-style:normal;font-variant:normal;font-weight:normal;font-stretch:normal;line-height:125%;letter-spacing:0px;word-spacing:0px;fill:#000000;fill-opacity:1;stroke:none;font-family:Times New Roman;-inkscape-font-specification:Times New Roman"
       x="675.75446"
       y="258.06921"
       id="text3055"
       sodipodi:linespacing="125%"
       transform="scale(0.83877936,1.1922086)"><tspan
         sodipodi:role="line"
         id="tspan3057"
         x="675.75446"
         y="258.06921">Move</tspan></text>
    <text
       xml:space="preserve"
       style="font-size:4.75812006px;font-style:normal;font-variant:normal;font-weight:normal;font-stretch:normal;line-height:125%;letter-spacing:0px;word-spacing:0px;fill:#000000;fill-opacity:1;stroke:none;font-family:Times New Roman;-inkscape-font-specification:Times New Roman"
       x="563.20392"
       y="119.88441"
       id="text3059"
       sodipodi:linespacing="125%"
       transform="scale(0.83877936,1.1922086)"><tspan
         sodipodi:role="line"
         id="tspan3061"
         x="563.20392"
         y="119.88441">Lift</tspan></text>
    <text
       xml:space="preserve"
       style="font-size:4.75812006px;font-style:normal;font-variant:normal;font-weight:normal;font-stretch:normal;line-height:125%;letter-spacing:0px;word-spacing:0px;fill:#000000;fill-opacity:1;stroke:none;font-family:Times New Roman;-inkscape-font-specification:Times New Roman"
       x="564.005"
       y="136.70691"
       id="text3063"
       sodipodi:linespacing="125%"
       transform="scale(0.83877936,1.1922086)"><tspan
         sodipodi:role="line"
         id="tspan3065"
         x="564.005"
         y="136.70691">Grab</tspan></text>
    <text
       xml:space="preserve"
       style="font-size:4.75812006px;font-style:normal;font-variant:normal;font-weight:normal;font-stretch:normal;line-height:125%;letter-spacing:0px;word-spacing:0px;fill:#000000;fill-opacity:1;stroke:none;font-family:Times New Roman;-inkscape-font-specification:Times New Roman"
       x="567.6098"
       y="145.91922"
       id="text3067"
       sodipodi:linespacing="125%"
       transform="scale(0.83877936,1.1922086)"><tspan
         sodipodi:role="line"
         id="tspan3069"
         x="567.6098"
         y="145.91922">Throw</tspan></text>
    <text
       xml:space="preserve"
       style="font-size:4.75812006px;font-style:normal;font-variant:normal;font-weight:normal;font-stretch:normal;line-height:125%;letter-spacing:0px;word-spacing:0px;fill:#000000;fill-opacity:1;stroke:none;font-family:Times New Roman;-inkscape-font-specification:Times New Roman"
       x="737.83746"
       y="135.90584"
       id="text3071"
       sodipodi:linespacing="125%"
       transform="scale(0.83877936,1.1922086)"><tspan
         sodipodi:role="line"
         id="tspan3073"
         x="737.83746"
         y="135.90584">Signal</tspan></text>
    <text
       xml:space="preserve"
       style="font-size:4.75812006px;font-style:normal;font-variant:normal;font-weight:normal;font-stretch:normal;line-height:125%;letter-spacing:0px;word-spacing:0px;fill:#000000;fill-opacity:1;stroke:none;font-family:Times New Roman;-inkscape-font-specification:Times New Roman"
       x="739.03906"
       y="144.71762"
       id="text3075"
       sodipodi:linespacing="125%"
       transform="scale(0.83877936,1.1922086)"><tspan
         sodipodi:role="line"
         id="tspan3077"
         x="739.03906"
         y="144.71762">Type</tspan></text>
    <text
       xml:space="preserve"
       style="font-size:4.75812006px;font-style:normal;font-variant:normal;font-weight:normal;font-stretch:normal;line-height:125%;letter-spacing:0px;word-spacing:0px;fill:#000000;fill-opacity:1;stroke:none;font-family:Times New Roman;-inkscape-font-specification:Times New Roman"
       x="668.14429"
       y="187.17441"
       id="text3079"
       sodipodi:linespacing="125%"
       transform="scale(0.83877936,1.1922086)"><tspan
         sodipodi:role="line"
         id="tspan3081"
         x="668.14429"
         y="187.17441">Ventilate</tspan></text>
    <text
       xml:space="preserve"
       style="font-size:4.75812006px;font-style:normal;font-variant:normal;font-weight:normal;font-stretch:normal;line-height:125%;letter-spacing:0px;word-spacing:0px;fill:#000000;fill-opacity:1;stroke:none;font-family:Times New Roman;-inkscape-font-specification:Times New Roman"
       x="666.94269"
       y="171.55351"
       id="text3083"
       sodipodi:linespacing="125%"
       transform="scale(0.83877936,1.1922086)"><tspan
         sodipodi:role="line"
         id="tspan3085"
         x="666.94269"
         y="171.55351">Circulate</tspan></text>
    <text
       xml:space="preserve"
       style="font-size:4.75812006px;font-style:normal;font-variant:normal;font-weight:normal;font-stretch:normal;line-height:125%;letter-spacing:0px;word-spacing:0px;fill:#000000;fill-opacity:1;stroke:none;font-family:Times New Roman;-inkscape-font-specification:Times New Roman"
       x="672.55017"
       y="131.49994"
       id="text3087"
       sodipodi:linespacing="125%"
       transform="scale(0.83877936,1.1922086)"><tspan
         sodipodi:role="line"
         id="tspan3089"
         x="672.55017"
         y="131.49994">Gulp</tspan></text>
    <path
       style="fill:none;stroke:#000000;stroke-width:0.39651003px;stroke-linecap:butt;stroke-linejoin:miter;stroke-opacity:1"
       d="m 560.76158,182.08404 c 0,0 -24.52515,15.2807 -39.6434,9.07291 -15.11824,-6.20778 -28.55668,-8.11787 -28.55668,-8.11787 0,0 2.01576,-39.15681 -8.39903,-47.7522 -10.41479,-8.5954 -18.47785,-17.66832 -15.79016,-3.82018 2.68768,13.84814 2.68768,13.84814 2.68768,13.84814 l 0.67192,24.83114 9.07095,22.92106 22.17343,6.68531 31.91629,10.98301 4.03154,51.09485 7.7271,18.62336 -14.11036,68.28564 9.40691,6.68531 c 0,0 13.43844,-46.31963 14.11036,-59.69025 0.67192,-13.37061 2.01576,-15.2807 4.03153,-16.23574 2.01577,-0.95505 -1.00788,-2.86514 1.67981,21.01096 2.68768,23.8761 1.6798,40.58937 5.37537,46.31964 3.69557,5.73026 9.07095,10.50548 10.41479,9.07292 1.34385,-1.43257 12.43056,10.983 8.06307,-12.41557 -4.3675,-23.39858 -8.73499,-43.45451 -10.41479,-48.22973 -1.67981,-4.77522 -5.03942,-15.2807 -4.70346,-17.19079 0.33596,-1.91009 1.67981,-23.8761 3.69557,-30.08389 2.01577,-6.20779 5.03942,-36.29167 5.03942,-36.29167 0,0 -7.72711,-1.43256 8.73498,-1.43256 16.46209,0 24.86112,-7.16284 27.5488,-8.5954 2.68769,-1.43257 17.13401,-5.25275 17.13401,-5.25275 l -1.6798,-67.3306 c 0,0 -14.44632,-22.92106 -15.79017,4.77522 -1.34384,27.69628 -0.33596,46.31964 -1.34384,48.22973 -1.00788,1.91008 -8.39902,15.2807 -15.11824,14.80318 -6.71922,-0.47753 -13.43845,-2.38761 -16.12613,-5.73027 -2.68769,-3.34265 -7.39114,-13.84814 -7.39114,-13.84814"
       id="path3102"
       inkscape:connector-curvature="0" />
  </g>
</svg>
